# xmcd CD database file
#
# Track frame offsets:
#	150
#	13472
#	30756
#	52097
#	64583
#	83913
#	103351
#	123811
#	139679
#	155403
#	178614
#	189286
#
# Disc length: 2848 seconds
#
# Revision: 0
# Processed by: cddbd v1.5.2PL0 Copyright (c) Steve Scherf et al.
# Submitted via: CDex 1.79
#
DISCID=9a0b1e0c
DTITLE=Three Weeks: Bryce Wood-Lead Vocals, Guitar - Austin Wood-Keys, Guitar, Vocals - Spencer Chandler-Keys, Guitar, Vocals - Preston Chandler-Bass, Vocals - Produced and Mixed by Jay Richards - Alive Again
DYEAR=2009
DGENRE=New Age
TTITLE0=Hello Mr. Gecko
TTITLE1=Kising a Stone
TTITLE2=Alive Again
TTITLE3=Doin Alright
TTITLE4=Dancing in the Rain
TTITLE5=Baby Blue
TTITLE6=Lilly
TTITLE7=Leisure Lane
TTITLE8=Chillin Song
TTITLE9=I'll Stand By You
TTITLE10=Christy
TTITLE11=Resurrect the Rain
EXTD=YEAR: 2009
EXTT0=
EXTT1=
EXTT2=
EXTT3=
EXTT4=
EXTT5=
EXTT6=
EXTT7=
EXTT8=
EXTT9=
EXTT10=
EXTT11=
PLAYORDER=
